<?xml version="1.0" encoding="utf-8"?>
<!-- Generator: Adobe Illustrator 23.0.3, SVG Export Plug-In . SVG Version: 6.00 Build 0)  -->
<svg version="1.1" id="Layer_1" xmlns="http://www.w3.org/2000/svg" xmlns:xlink="http://www.w3.org/1999/xlink" x="0px" y="0px"
	 viewBox="0 0 1366 768" style="enable-background:new 0 0 1366 768;" xml:space="preserve">
<style type="text/css">
	.st0{fill:none;stroke:#FFFFFF;stroke-width:3;stroke-miterlimit:10;}
</style>
<path class="st0" d="M864.89,541.32c-9.53-16.91-14.43-36.03-14.18-55.43V336.86c0-100.99-81.87-182.86-182.86-182.86h-2.84
	C565.77,155.52,485,239.48,485,341.18v178.53c0.08,14.48,3.4,28.76,9.72,41.79C524.2,623.03,616.07,666,718.14,666
	c100.76,0,178.16-32.18,215.87-88.96C906.02,579.46,879.12,565.56,864.89,541.32z M695.75,260.82c1.6-4.78,6.76-7.36,11.55-5.78
	c10.27,3.76,20.05,8.74,29.13,14.84c9.08-6.1,18.86-11.09,29.14-14.84c4.8-1.6,9.98,0.99,11.59,5.79c1.6,4.8-0.99,9.98-5.79,11.59
	c-6.84,2.57-13.43,5.76-19.68,9.54c12.98,11.58,21.97,26.95,25.71,43.93c0.49,2.38,0.01,4.85-1.33,6.87
	c-1.34,2.02-3.43,3.43-5.8,3.92c-0.6,0.13-1.21,0.18-1.83,0.18c-4.34,0-8.08-3.06-8.95-7.31c-3.29-14.5-11.42-27.45-23.05-36.71
	c-11.58,9.3-19.7,22.23-23.04,36.71c-0.87,4.26-4.61,7.32-8.96,7.31c-0.62,0-1.23-0.05-1.83-0.18c-2.38-0.48-4.46-1.89-5.8-3.92
	c-1.34-2.02-1.82-4.5-1.33-6.87c3.69-17.04,12.68-32.46,25.68-44.07c-6.24-3.76-12.81-6.93-19.63-9.47
	c-4.76-1.61-7.32-6.76-5.75-11.53H695.75z M531.18,260.82c1.6-4.78,6.77-7.36,11.55-5.78c10.27,3.76,20.05,8.74,29.13,14.84
	c9.08-6.1,18.86-11.09,29.14-14.84c3.1-1.04,6.52-0.34,8.97,1.83c2.45,2.17,3.55,5.48,2.9,8.68c-0.65,3.21-2.97,5.82-6.07,6.86
	c-6.84,2.57-13.43,5.76-19.68,9.54c12.98,11.58,21.97,26.95,25.71,43.93c0.48,2.38,0.01,4.85-1.33,6.87
	c-1.34,2.02-3.43,3.43-5.8,3.92c-0.6,0.13-1.21,0.18-1.83,0.18c-4.34,0-8.08-3.06-8.95-7.31c-3.29-14.5-11.42-27.45-23.05-36.71
	c-11.58,9.3-19.69,22.23-23.04,36.71c-0.87,4.26-4.61,7.32-8.96,7.31c-0.61,0-1.23-0.05-1.83-0.18c-2.38-0.48-4.46-1.89-5.8-3.92
	c-1.34-2.02-1.82-4.5-1.33-6.87c3.69-17.04,12.68-32.46,25.68-44.07c-6.23-3.76-12.8-6.93-19.63-9.47
	c-4.76-1.61-7.33-6.76-5.75-11.53H531.18z M603.86,519.71c0,25.25-20.46,45.71-45.71,45.71c-25.25,0-45.71-20.47-45.71-45.71V474
	c0-5.05,4.09-9.14,9.14-9.14c5.05,0,9.14,4.09,9.14,9.14v45.71c0,15.15,12.28,27.43,27.43,27.43s27.43-12.28,27.43-27.43V474
	c0-5.05,4.09-9.14,9.14-9.14s9.14,4.09,9.14,9.14V519.71z M649.57,410v-18.29h-73.14c-5.05,0-9.14-4.09-9.14-9.14
	c0-5.05,4.09-9.14,9.14-9.14h155.43c5.05,0,9.14,4.09,9.14,9.14c0,5.05-4.09,9.14-9.14,9.14h-9.14V410
	c0,20.2-16.38,36.57-36.57,36.57C665.95,446.57,649.57,430.2,649.57,410z M786.71,519.71c0,25.25-20.47,45.71-45.71,45.71
	s-45.71-20.47-45.71-45.71V474c0-5.05,4.09-9.14,9.14-9.14c5.05,0,9.14,4.09,9.14,9.14v45.71c0,15.15,12.28,27.43,27.43,27.43
	s27.43-12.28,27.43-27.43V474c0-5.05,4.09-9.14,9.14-9.14c5.05,0,9.14,4.09,9.14,9.14V519.71z"/>
<g>
</g>
<g>
</g>
<g>
</g>
<g>
</g>
<g>
</g>
<g>
</g>
<g>
</g>
<g>
</g>
<g>
</g>
<g>
</g>
<g>
</g>
<g>
</g>
<g>
</g>
<g>
</g>
<g>
</g>
</svg>
